<svg xmlns="http://www.w3.org/2000/svg" width="192" height="192" viewBox="0 0 192 192" role="img" aria-label="BDTT 2026">
  <rect width="192" height="192" rx="42" fill="#171a14"/>
  <rect x="17" y="17" width="158" height="158" rx="33" fill="#f7f7f4"/>
  <rect x="29" y="29" width="134" height="134" rx="24" fill="#1f231b"/>
  <path d="M50 50h93a8 8 0 0 1 8 8v7H41v-7a8 8 0 0 1 9-8Z" fill="#b7e35a"/>
  <path d="M47 119h74a7 7 0 0 1 0 14H47a7 7 0 0 1 0-14Zm0-22h98a7 7 0 0 1 0 14H47a7 7 0 0 1 0-14Z" fill="#f7f7f4" opacity=".92"/>
  <path d="M130 131l12 12 26-31 11 9-36 43-23-23Z" fill="#b7e35a"/>
  <text x="96" y="89" fill="#f7f7f4" font-family="Segoe UI, Arial, sans-serif" font-size="33" font-weight="800" letter-spacing="0" text-anchor="middle">BDTT</text>
  <circle cx="144" cy="58" r="3.5" fill="#f2a24a"/>
</svg>
